# xmcd
#
# Track frame offsets:
#	150
#	14629
#	21681
#	35352
#	44884
#	54660
#	65570
#	78290
#	88576
#	100081
#	108820
#
# Disc length: 1635 seconds
#
# Revision: 1
# Processed by: cddbd v1.5.2PL0 Copyright (c) Steve Scherf et al.
# Submitted via: audiograbber 1.83.01
#
DISCID=9206610b
DTITLE=Belching Beet - Out of sight
DYEAR=2008
DGENRE=Grindcore
TTITLE0=no more 
TTITLE1=no feelings 
TTITLE2=out of sight
TTITLE3=Übergott
TTITLE4=good entertainment
TTITLE5=W.P.D.
TTITLE6=dying universe
TTITLE7=who killed kenny?
TTITLE8=meaning of life
TTITLE9=like a man
TTITLE10=hasta siempre commandante
EXTD=
EXTT0=
EXTT1=
EXTT2=
EXTT3=
EXTT4=
EXTT5=
EXTT6=
EXTT7=
EXTT8=
EXTT9=
EXTT10=
PLAYORDER=
